<svg xmlns="http://www.w3.org/2000/svg" width="15" height="15" viewBox="0 0 15 15">
  <g id="Vector_Smart_Object" data-name="Vector Smart Object" transform="translate(-902 -171)">
    <g id="Vector_Smart_Object-2" data-name="Vector Smart Object" transform="translate(900.973 170)">
      <path id="Path_7" data-name="Path 7" d="M11.018,6h5.008V1h-1V4.3l-1.2-1.1a7.567,7.567,0,0,0-10.618,0,7.536,7.536,0,0,0,0,10.6,7.505,7.505,0,0,0,10.618,0l-.7-.7a6.6,6.6,0,0,1-9.215,0,6.572,6.572,0,0,1,0-9.2,6.6,6.6,0,0,1,9.215,0l1.1,1.1H11.018Z"/>
    </g>
    <path id="Color_Overlay" data-name="Color Overlay" d="M904.179,183.8A7.5,7.5,0,1,1,914.8,173.2l1.2,1.1V171h1v5h-5.008v-1h3.2l-1.1-1.1a6.511,6.511,0,1,0,0,9.2l.7.7a7.5,7.5,0,0,1-10.617,0Z" fill="#fff"/>
  </g>
</svg>
