<svg xmlns="http://www.w3.org/2000/svg" width="17" height="17" viewBox="0 0 17 17">
  <defs>
    <style>
      .cls-1 {
        fill: #9c9c9c;
      }
    </style>
  </defs>
  <path id="Color_Overlay" data-name="Color Overlay" class="cls-1" d="M1066,30.5a8.5,8.5,0,1,1,8.5,8.5A8.494,8.494,0,0,1,1066,30.5Zm6.1,1.8c-1.1,1.1-1.1,2.7-1.1,4.5v.3a7.184,7.184,0,0,0,3.6,1,6.754,6.754,0,0,0,3.5-.9v-.3c0-1.8,0-3.4-1.1-4.5l.7-.7c1.2,1.3,1.3,3,1.3,4.8a7.677,7.677,0,0,0,3-6,7.5,7.5,0,1,0-12,6c0-1.8.1-3.5,1.4-4.9Zm-1.1-3.8a3.5,3.5,0,1,1,3.5,3.5A3.543,3.543,0,0,1,1071,28.5Zm1,0a2.5,2.5,0,1,0,2.5-2.5A2.475,2.475,0,0,0,1072,28.5Z" transform="translate(-1066 -22)"/>
</svg>
